<?xml version="1.0" encoding="utf-8"?>
<!-- Generator: Adobe Illustrator 27.9.0, SVG Export Plug-In . SVG Version: 6.00 Build 0)  -->
<svg version="1.1" id="Layer_1" xmlns="http://www.w3.org/2000/svg" xmlns:xlink="http://www.w3.org/1999/xlink" x="0px" y="0px"
	 viewBox="0 0 566.9 566.9" style="enable-background:new 0 0 566.9 566.9;" xml:space="preserve">
<style type="text/css">
	.st0{display:none;fill:#F15E2D;}
	.st1{fill:#F15E2D;}
</style>
<path class="st0" d="M247.8,311.6h17.6v46h-15.2v-18.4l-5.4,18.4h-12.9l-5.3-18.4v18.4h-15.2v-46h17.6l9.4,28.3L247.8,311.6z
	 M294.3,310.5c12.3,0,25.2,6.6,25.2,24.1c0,17.5-13,24.1-25.2,24.1c-12.2,0-25.2-6.6-25.2-24.1C269.1,317.2,282,310.5,294.3,310.5z
	 M294.3,345.8c4.8,0,10.3-2.6,10.3-11.2c0-8.5-5.5-11.2-10.3-11.2c-4.7,0-10.2,2.6-10.2,11.2C284.1,343.2,289.5,345.8,294.3,345.8z
	 M353.8,311.6h15.2v46h-15.2l-15.4-24.1v24.1h-15.2v-46h15.2v0.1l15.4,24.2V311.6z M403.5,331l19.1,26.6h-17.2l-10.8-15l-5,6.5v8.5
	h-15.2v-46h15.2v18.3l14.1-18.3h14.8L403.5,331z M439.7,344.7h25.7v13h-41v-46.1h39.4v13h-24.2v3.9H462v11.2h-22.3V344.7z
	 M504.9,311.7H520l-19.3,30.5v15.5h-15.2v-15.2L466,311.7h17.3l10.9,17.1L504.9,311.7z M545.7,329.7c13.2,3.1,17.8,7,17.8,14.6
	c0,6.1-5.4,14.4-22.4,14.4c-13.3,0-20.1-7.3-23.4-13.1l15.8-3.8c3.3,3.4,7.2,3.9,9.7,3.9c2.6,0,4.4-1,4.4-2.5c0-2.1-2.4-2.6-8.9-3.8
	c-7-1.4-19.8-5.1-19.8-15.7c0-7.7,6.7-13.3,21-13.3c12.6,0,21,7.6,22.5,13l-14.7,3c-1.4-2.3-5.3-3.2-8.5-3.2c-2.2,0-4.5,0.5-4.5,2
	C534.7,327.7,538.8,328.2,545.7,329.7z"/>
<path class="st0" d="M259.8,249.1c23.6,5.5,31.9,12.5,31.9,26.1c0,11-9.7,25.8-40.2,25.8c-23.9,0-36-13.1-41.9-23.4l28.4-6.7
	c6,6,13,7.1,17.4,7.1c4.7,0,7.9-1.8,7.9-4.5c0-3.8-4.4-4.6-16-6.8c-12.5-2.5-35.4-9.1-35.4-28.1c0-13.8,12-23.8,37.6-23.8
	c22.5,0,37.7,13.6,40.3,23.3l-26.4,5.4c-2.5-4.1-9.4-5.6-15.2-5.6c-4,0-8,0.9-8,3.5C240.1,245.4,247.4,246.3,259.8,249.1z
	 M325.5,276h46v23.2h-73.4v-82.6h70.7v23.2h-43.4v7.1h39.9v20h-39.9L325.5,276L325.5,276z M441.1,216.6l29,82.4h-28.3l-4.1-11.8
	h-31.9l-4.2,11.8h-28.1l28.9-82.4L441.1,216.6L441.1,216.6z M412.7,267.2h17.9l-9-25.4L412.7,267.2z"/>
<path class="st1" d="M92.5,333.7c1.3,0,14.8-1.7,21.6-6.6c1.9-1.4,3.5-3.3,5.2-4.9c0.7-0.6,1.4-1.4,2.2-1.7c1.3-0.5,2.7,0,3.3,1
	c0.8,1.1,0.9,2.7-0.1,3.9c-1.3,1.7-2.7,3.3-4.3,4.8c-6.2,5.6-13.6,8.5-21.8,9.5c-8.4,1.1-16.6,0.4-24.6-2.5c-5-1.8-9.5-4.5-13.2-8.4
	c-0.7-0.7-1.3-0.9-2.2-0.6c-1.3,0.4-2.6-0.5-2.8-1.9c-0.5-3.4,2.6-7.4,6-7.7c1.4-0.1,2.8,0.8,2.6,2c-0.4,3,1.6,4.4,3.5,5.8
	c4.7,3.6,10.1,5.7,15.9,6.5c2.4,0.3,4.8,0.5,5.8,0.6C90.8,333.8,91.3,333.8,92.5,333.7L92.5,333.7z"/>
<path class="st1" d="M95.1,303c-0.2-0.2-0.5-0.9-0.7-1.7c-0.4-2.6,2.9-6.9,5.6-7.1c0.8-0.1,2.2,0.6,2.6,1.3c0.4,0.7,0.3,2.2-0.2,2.9
	c-1.4,1.7-3.9,4.2-4.7,4.7c-0.8,0.5-1.4,0.5-1.8,0.4C95.6,303.5,95.2,303.2,95.1,303L95.1,303z"/>
<path class="st1" d="M82.7,294.7c0.9-0.1,7.7,4.3,7.5,6.9c-0.1,0.8-0.6,1.8-1.2,2.1c-0.7,0.3-1.9,0.1-2.6-0.4
	c-1.7-1.1-3.4-2.4-4.8-4c-0.6-0.7-0.8-2.1-0.6-3C81.2,295.5,81.7,294.8,82.7,294.7z"/>
<path class="st1" d="M118.6,266.6c-1.8-1.8-1.2-5.5,1.5-8.2c-5.2-2.6-11,1.2-12.2,8.2c-1,6.2,3,12.9,8.1,13.2
	c5.3,0.4,9.6-4.9,9.5-11.9c0-0.6-0.1-1.1-0.2-1.7C122.9,268,120.1,268.1,118.6,266.6L118.6,266.6z"/>
<path class="st1" d="M67.7,266.7c-1.8-1.8-1.2-5.5,1.5-8.2c-5.2-2.6-11,1.2-12.2,8.2c-1,6.2,3,12.9,8.1,13.2
	c5.3,0.4,9.6-4.9,9.5-11.9c0-0.6-0.1-1.1-0.2-1.7C72,268.1,69.3,268.3,67.7,266.7L67.7,266.7z"/>
<path class="st1" d="M142.3,270.5c-0.3,2-0.5,4.7-1.1,7.4c-1.3,6.2-5.2,10.5-11,12.7c-7.3,2.7-14.9,3.1-22.3,0.4
	c-2.5-0.9-4.7-2.8-6.8-4.5c-1.7-1.4-3.1-3.2-4.7-4.6c-2.7-2.3-5.9-2.4-8.7-0.2c-1.3,1-2.6,2.2-3.7,3.5c-3.4,4-7.7,6.5-12.9,7.1
	c-6,0.8-11.9,0.6-17.6-1.6c-6.4-2.5-10.7-7.2-11.4-14.1c-0.6-5.2-0.3-10.6,0.4-15.8c1.3-9.1,9-13.9,17.1-14.9
	c17.4-2.1,34.9-0.9,52.4-0.9c5.3,0,10.6,0.5,15.8,1.6c8.7,1.9,12.9,8.2,14.2,16.6C142.1,265.4,142.1,267.6,142.3,270.5L142.3,270.5
	L142.3,270.5L142.3,270.5L142.3,270.5z M87.1,250.7c-3.5,0-6,0-9.1,0.2c-7,0.5-14,0.8-20.9,1.9c-4.9,0.7-8.2,4.1-9,9.1
	c-0.6,3.8-1,7.8-0.8,11.7c0.2,6.2,4.2,11.2,10,12.4c3.9,0.8,8.1,0.7,12.2,0.5c4-0.2,7.2-2.2,9.9-5.3c1.3-1.5,2.8-3,4.4-4.2
	c3.5-2.6,7.3-3.8,11.7-2.4c3.6,1.1,6.3,3.4,8.6,6.2c2.9,3.5,6.5,5.6,11.1,5.8c2.3,0.1,4.6,0.1,6.8,0c6.1-0.4,11-2.9,13.1-8.8
	c2.1-5.8,1.8-11.9-0.2-17.8c-2-5.8-6.9-7.9-12.5-8.1c-11.7-0.6-34.6-1.1-34.8-1.1L87.1,250.7L87.1,250.7z"/>
<path class="st1" d="M180.9,266.1c-1.9-8.4-6-15.1-14.2-18.4c-3.4-1.4-11.1-2.2-11.2-2.2c-0.1,0-0.1-0.1-0.1-0.1c0-0.2,0-0.2,0-0.6
	c0.2-11.9,0.3-23.7,0.6-35.5c0-0.7,0.8-1.4,1.1-2.1c0.6-1.1,1.8-2.2,1.9-3.3c0.2-3.1,0-6.2-0.1-9.3c-0.1-2.6-1-3.5-3.6-3.6
	c-3.4-0.1-6.9-0.1-10.3,0c-2.6,0-3.5,0.9-3.5,3.6c-0.1,3-0.2,6.1,0,9.1c0.1,1.2,1.2,2.4,1.9,3.6c0.4,0.8,1.2,1.5,1.2,2.2
	c0.1,8.7,0.2,17.3,0.2,26v2.1c-9.3-14.3-21.1-23.7-35.4-27.8c0.5-1.4,2.6-8.1,0.6-9.4c-1.7-1.1-6.2,1.9-11.2,7.4
	c2.5-7,3-11.1,1.2-12.4c-2.6-1.9-10,2.6-22.1,13.5c-21.5,4.2-36.1,17.9-44.8,38.8c-6.2-2.5-12.3-2.4-17.9,1.1
	C5.5,255,1.8,264.5,3,276c0.7,7.2,3.5,13.6,8.6,18.7c5.3,5.2,11.7,7.5,19.1,6.6c0.4,1.1,0.9,2.1,1.1,3.1c0.5,2.1,1.9,3.8,1.1,6.3
	c-4.1,13-1.8,25.3,5.5,36.4c9.3,14.3,22.7,22.9,39.3,26.5c15.7,3.4,30.5,1.1,44.3-7.1c2.7-1.6,6.9-4.4,6.9-5.5c0-0.3,0-0.6-0.2-0.8
	c-0.3-0.4-1.3-0.4-1.6-0.4c-0.7,0-9,0-13.5,0c-0.9,0-1.8,0.2-2.6,0.4c-3.9,0.9-7.7,2.3-11.6,2.8c-16.4,2.2-30.9-2-42.8-13.7
	c-7.9-7.9-10.8-17.6-9.2-28.5c1.3-8.5,6.4-15,13.1-20.3c0.7-0.6,1.4-1.1,2.4-1.8c-2.9-0.4-5.5-0.6-7.9-1.2c-8.4-2-14.6-6.4-17.4-15
	c-2-6.4-2.3-13-1.7-19.6c0.8-7.7,4.5-13.7,10.7-18.2c5.9-4.3,13-5.4,20-5.5c15.4-0.2,30.9-0.3,46.3,0c5.5,0.1,11.1,0.7,16.4,2
	c9.5,2.3,15.1,8.8,17.5,18.2c1.6,6.3,1.4,12.6,0.1,19c-1.8,9.4-7.6,15.3-16.3,18.5c-3,1.1-6.3,1.3-9.6,2
	c14,10.1,18.4,23.4,13.5,40.2c5.3-0.5,7.8-4,9.9-8.3c0.9,6.7-3.4,12.1-10,12.5c-5.6,0.4-11.3,0.4-16.9,0.4c-6.4,0.1-6.4,0-6.7,6.6
	c0,0.3-0.1,0.6-0.1,1c-0.1,3.4,1.2,4.8,4.6,4.8c5.4,0,10.8,0,16.2,0c13.4,0,23.8-10.2,24.1-23.6c0.2-9.6,0.4-19.1,0.5-28.7
	c0-0.7,0.1-1.4,0.2-1.9c1.9-0.4,3.6-0.5,5.3-1c1.7-0.5,3.4-1.1,5-1.9C177.2,293,183.6,278.1,180.9,266.1z M30.8,256.7
	c-0.8,2.5-1.2,5.2-1.8,7.8l0,0c-1.7-0.4-3.2-1-4.7-0.9c-3.7,0.1-7.2,4.6-6.4,8.3c0.2,1,0.8,2.7,2.1,2.7c1.2,0,1.8-1.4,2.1-2.3
	c0.6-1.5,0.8-3.5,3-3c2,0.5,3.1,1.7,3.1,4.2c0,6.4,0.4,12.7,0.8,19c0.1,1.9-0.9,2.2-2.1,2.1c-4.4-0.5-8.5-1.8-11.2-5.6
	c-5.8-8-8-18.7-2.9-27.6c3.5-6.1,10.2-9.3,16.2-7.8C30.7,254,31.4,254.8,30.8,256.7z M173.4,278.1c-0.9,3.3-2.5,6.6-4.3,9.5
	c-2.9,4.5-6.8,6.4-12.6,6.8c-0.1-0.8-0.2-1.5-0.2-2.3c0-6.5,0.1-12.9-0.1-19.4c-0.1-2.3,1.1-3.1,2.9-3.6c2-0.6,2.5,1,3.1,2.4
	c0.6,1.3,0.5,3.4,2.6,2.8c2-0.6,2.1-2.5,1.8-4.3c-0.9-5.4-5-7.7-9.3-6c-0.4,0.1-0.8,0.1-1.3,0.2v-10.4l0,0c5.3-1.2,9.8,0.1,13.3,3.9
	C174.5,263.6,175.3,270.7,173.4,278.1z"/>
<path class="st1" d="M266.8,221.7l-7.4,19.2c-0.5-0.5-1.1-1.2-1.9-1.9c-0.8-0.8-2.3-1.8-4.7-3.1c-2.3-1.3-4.5-2-6.7-2
	c-2-0.1-3.6,0.2-4.9,0.7c-1.2,0.5-2.1,1.2-2.7,2.3c-0.5,1.1-0.9,2.5-1,4.3c-0.2,2.3,1.2,4.3,4.1,6.1c2.9,1.7,6.1,2.9,9.5,3.5
	c2,0.4,3.7,0.8,5.3,1.4c1.6,0.5,3.3,1.2,5.2,2.3c1.9,1.1,3.4,2.3,4.7,3.9c1.2,1.5,2.2,3.5,2.8,6c0.8,2.4,1,5.2,0.8,8.4
	c-0.6,7-3.7,11.8-9.2,14.4c-5.5,2.6-13.8,3.6-25,2.9c-4.5-0.2-8.6-0.7-12.3-1.4c-3.6-0.8-6.3-1.6-8.2-2.4c-1.8-0.9-3.3-1.8-4.5-2.6
	c-1.2-0.8-2-1.5-2.3-2l-0.5-0.8l9-17c0.2,0.2,0.3,0.3,0.5,0.5c0.2,0.2,0.5,0.5,1.1,1c0.6,0.5,1.2,0.9,1.8,1.4c0.7,0.5,1.5,1,2.4,1.6
	c1,0.6,2,1.2,2.9,1.7c1.1,0.5,2.2,0.9,3.4,1.4c1.3,0.4,2.5,0.7,3.7,0.9c8.3,1.4,13,1.1,14.2-1c0.3-0.6,0.2-1.3-0.3-2.2
	c-0.2-0.5-1-1.1-2.4-1.6c-1.4-0.6-3-1.2-4.9-1.8c-1.8-0.6-3.8-1.4-6-2.3c-2.2-1-4.3-2-6.5-3.1c-2-1.1-3.9-2.6-5.7-4.3
	c-1.7-1.7-3-3.6-4-5.6c-1-2-1.4-4.5-1.2-7.4c0.2-2.9,0.9-6.1,2.4-9.4c2.6-5.9,5.9-10.1,10-12.7c4.1-2.6,9.2-4.1,15.2-4.4
	c4.2-0.2,8.3,0.2,12.1,1.1c3.9,0.8,6.7,1.7,8.4,2.6L266.8,221.7z M304.5,228.7c3.9,0,7.4,0.6,10.4,1.9c3.1,1.2,5.5,2.8,7.1,4.8
	c1.7,2,3.2,4.2,4.3,6.6c1.2,2.3,2,4.7,2.3,7.1c0.4,2.3,0.6,4.5,0.8,6.5c0.2,2,0.2,3.6,0,4.8l-0.1,1.8l-35.3-0.5
	c0.2,1.7,0.8,3,1.8,4.1c1.1,1.1,2.4,1.8,4,2.2c1.7,0.3,3.4,0.5,5.2,0.6c1.9,0,3.8-0.2,5.7-0.5c1.9-0.4,3.6-0.7,5.1-1
	c1.5-0.4,2.8-0.7,3.7-1c1-0.3,1.4-0.5,1.4-0.6l2.9,22.7c-0.5,0.2-1.1,0.3-2,0.6c-0.8,0.2-2.5,0.6-5.1,1c-2.5,0.5-5,0.8-7.4,1
	c-2.3,0.2-5,0.3-8.1,0.1c-2.9-0.2-5.6-0.6-7.8-1.2c-8.4-2.5-14.2-6.1-17.4-10.7c-3.1-4.6-4.1-11.3-2.9-20.2
	c1.2-8.8,4.6-16,10.1-21.6C288.9,231.5,296,228.7,304.5,228.7z M296.1,251.3l16.7,0.3c-0.1-0.2-0.2-0.3-0.2-0.6
	c-0.1-0.3-0.3-0.8-0.7-1.5c-0.4-0.7-0.8-1.3-1.2-1.8c-0.5-0.5-1.1-1-1.9-1.5c-0.8-0.5-1.6-0.8-2.6-0.9c-2.1-0.2-4.1,0.3-6,1.6
	C298.2,248.2,296.9,249.6,296.1,251.3z M371.9,236.9h18.6l-3.2,51.3h-21.4l0.2-2.2c-0.1,0.1-0.2,0.2-0.5,0.5
	c-0.2,0.2-0.8,0.5-1.7,0.9c-0.9,0.5-1.9,0.8-3.1,1c-1.1,0.2-2.5,0.5-4.3,0.7c-1.8,0.2-3.8,0.2-6-0.1c-7-0.9-11.9-3.7-14.9-8.3
	c-2.9-4.7-3.9-10.9-2.8-18.6c1-7.3,3.9-13.2,8.7-17.8c4.9-4.6,11.2-7.1,18.7-7.4c2,0,3.7,0.1,5.1,0.2c1.4,0.2,2.5,0.4,3.3,0.7
	c0.8,0.2,1.4,0.5,1.8,0.9c0.5,0.4,0.7,0.7,0.8,1c0.2,0.2,0.2,0.5,0.2,0.8L371.9,236.9z M368.1,269.2l1.8-15.3
	c-8.1-4.8-13.5-2.1-16.1,8.1c-0.3,1.4-0.5,2.6-0.6,3.6c0,1,0.1,1.8,0.2,2.5c0.2,0.7,0.6,1.2,1.1,1.7c0.5,0.4,1,0.7,1.5,0.9
	c0.5,0.2,1.2,0.3,2.2,0.3s1.7,0,2.3,0c0.7-0.1,1.6-0.2,2.6-0.5c1.1-0.3,2-0.5,2.5-0.7C366.2,269.7,367.1,269.5,368.1,269.2z
	 M260.8,304.1l17.9,2.4l-1.6,59.5l-17.6,0.6l0.4-28.4l-10.5,22.2l-10.7-1.1l-8.6-21.5l-2.3,28.8l-17.5-0.8l3.5-60l18.2-2.2
	l13.7,36.1L260.8,304.1z M307,318.4c3.2,0.2,6.1,0.9,8.6,2.1c2.5,1.2,4.6,2.7,6.1,4.5c1.6,1.8,2.9,3.9,3.9,6.3
	c1,2.4,1.6,4.8,1.7,7.5c0.1,2.6,0,5.2-0.4,7.9c-1.1,7.1-3.7,12.4-7.7,15.8c-3.9,3.4-9.6,5.1-17.1,4.9c-7.2-0.1-12.4-2.4-15.6-6.7
	c-3.2-4.4-4.5-10.3-4.1-17.8c0.2-3.4,0.9-6.6,2.1-9.6c1.2-3.1,2.8-5.7,4.8-8c2.1-2.3,4.6-4.1,7.6-5.3
	C300,318.7,303.3,318.1,307,318.4z M312.5,343.6c0.4-8.8-1.9-13.3-6.8-13.6c-2.6-0.2-4.8,0.8-6.5,2.8c-1.7,2.1-2.8,5.2-3.3,9.4
	c-0.5,4.3,0,7.4,1.5,9.2c1.5,1.7,3.7,2.6,6.7,2.6c2.5-0.1,4.5-1.1,6-3.1C311.6,348.9,312.4,346.5,312.5,343.6z M373.8,346.3
	c0.2,2.1,0.4,4.8,0.4,7.9c0.1,3.1,0.1,5.7,0,7.8l-0.1,3.1l-15.9,1c0-0.4,0-0.8,0-1.4c0.1-0.6,0.1-1.9,0.1-3.6c0.1-1.8,0.1-3.6,0-5.2
	c0-1.6-0.1-3.5-0.2-5.6c-0.1-2.1-0.3-3.9-0.5-5.4c-0.2-1.6-0.5-3-0.9-4.1c-0.4-1.2-0.8-1.9-1.4-2.1c-1.4-0.5-2.6-0.5-3.6,0
	c-1.1,0.5-1.9,1.1-2.5,1.9l-1,1.2l-1.7,24.2h-16.8l4.2-37.6H348l0.5,2.2c0-0.1,0.2-0.4,0.7-0.7c0.5-0.4,1.4-0.9,2.6-1.4
	c1.2-0.5,2.4-0.8,3.8-0.9c2.9-0.1,5.5,0.3,7.8,1.2c2.3,0.9,4.1,2.2,5.6,4c1.4,1.7,2.5,3.7,3.3,5.9C373,341,373.5,343.5,373.8,346.3z
	 M406,343l13.6,12.6L408,366.2l-12.9-16l-1.3,15.7l-16.1-0.7l3.7-55.1l16.5-0.1l-2.4,28.3l8.7-13.8l13.8,7.4L406,343z M446,320.6
	c3.1,0,5.8,0.5,8.1,1.5c2.4,0.9,4.3,2.2,5.6,3.7c1.4,1.5,2.5,3.2,3.4,5.1c0.9,1.8,1.5,3.7,1.8,5.6c0.3,1.8,0.5,3.5,0.6,5
	c0.1,1.5,0.1,2.8,0,3.7l-0.1,1.4l-27.4-0.4c0.1,1.3,0.6,2.4,1.4,3.2c0.8,0.8,1.9,1.4,3.1,1.7c1.3,0.2,2.6,0.4,4.1,0.4
	c1.5,0,2.9-0.1,4.4-0.4c1.5-0.3,2.8-0.6,4-0.8c1.2-0.3,2.1-0.6,2.9-0.8c0.8-0.2,1.1-0.4,1.1-0.4l2.3,17.6c-0.4,0.1-0.9,0.3-1.6,0.4
	c-0.6,0.2-2,0.4-4,0.8c-1.9,0.4-3.8,0.6-5.7,0.8c-1.8,0.2-3.9,0.2-6.3,0.1c-2.3-0.1-4.3-0.4-6.1-1c-6.5-1.9-11-4.7-13.5-8.3
	c-2.4-3.6-3.2-8.8-2.3-15.7c0.9-6.8,3.6-12.4,7.8-16.8C433.8,322.8,439.3,320.6,446,320.6z M439.4,338.1l13,0.3
	c-0.1-0.1-0.1-0.3-0.2-0.4c-0.1-0.2-0.2-0.6-0.5-1.1c-0.3-0.5-0.6-1-1-1.4c-0.4-0.4-0.9-0.8-1.5-1.1c-0.6-0.4-1.3-0.6-2-0.7
	c-1.6-0.2-3.2,0.2-4.7,1.2C441.1,335.7,440,336.8,439.4,338.1z M494.2,327.7l14.9-0.1c-0.8,21-1.6,34.9-2.5,41.6
	c-0.4,3.8-1.1,6.9-2.2,9.3c-1.1,2.5-2.5,4.5-4.4,5.8c-1.8,1.4-3.8,2.3-6,2.9c-2.2,0.6-4.8,0.9-7.9,1.1c-2.1,0.1-4,0-5.9-0.3
	c-1.9-0.2-3.4-0.6-4.7-1c-1.2-0.4-2.2-0.8-3.2-1.2c-0.9-0.4-1.5-0.8-1.9-1.1l-0.6-0.4l5.7-12.3c0.2,0.2,0.4,0.4,0.7,0.5
	c0.4,0.2,1,0.6,1.9,1.1c1,0.5,1.9,1,2.8,1.3c0.9,0.4,2,0.7,3.1,0.9c1.2,0.2,2.2,0.3,3.1,0.1c0.9-0.1,1.8-0.6,2.6-1.4
	c0.8-0.8,1.4-1.9,1.8-3.3c0.3-1.2,0.5-2.8,0.7-4.8c-4,1.9-7.4,3-10.3,3.2c-2.4,0.1-4.5-0.1-6.3-0.8c-1.7-0.6-3.1-1.6-4.1-2.7
	c-1-1.2-1.8-2.7-2.4-4.5c-0.5-1.8-0.9-3.7-1.1-5.6c-0.1-1.9-0.1-4.2,0-6.8c0.1-2.5,0.5-5.4,1.2-8.8c0.7-3.5,1.4-6.3,2-8.5l1-3.3
	l14.3-0.5c0,0-0.7,3.7-2.2,11.2c-1.8,10.2-1.7,15.7,0.1,16.6c1.4,0.6,2.6,0.7,3.9,0.4c1.2-0.4,2.3-0.9,3.1-1.6l1.2-1.1L494.2,327.7z
	 M539,337.4c0.1,0.1,0.3,0.1,0.6,0.3c1.1,0.5,1.9,0.9,2.5,1.1c0.6,0.3,1.5,0.7,2.6,1.3c1.2,0.6,2.1,1.1,2.9,1.7
	c0.8,0.5,1.6,1.2,2.6,1.9c1,0.8,1.8,1.6,2.5,2.4c0.6,0.8,1.2,1.7,1.8,2.7c0.6,0.9,1,2,1.2,3.2c0.2,1.2,0.3,2.4,0.2,3.7
	c-0.4,4.6-2.5,7.7-6.3,9.4c-3.8,1.7-9.8,2.4-17.9,1.9c-3.4-0.2-6.4-0.5-9.1-1c-2.6-0.5-4.7-1-6.1-1.5c-1.4-0.6-2.5-1.1-3.4-1.7
	c-0.9-0.5-1.4-1-1.7-1.4l-0.4-0.5l6.7-14.5c0.4,0.4,0.9,0.8,1.5,1.3c0.7,0.5,2.1,1.2,4.1,2.2c2.1,1,4.1,1.7,6.1,2
	c5.6,0.8,8.4,0.6,8.4-0.8c0-0.4-0.2-0.8-0.5-1.3c-0.3-0.4-1.1-0.9-2.4-1.4c-1.3-0.6-2.7-1.2-4.3-1.8c-1.5-0.6-3.2-1.4-4.9-2.3
	c-1.8-1-3.3-2.1-4.5-3.4c-1.2-1.2-2.1-2.8-2.7-4.6c-0.6-1.9-0.5-4,0.4-6.4c0.6-2.1,1.5-3.8,2.7-5.2c1.2-1.5,2.7-2.6,4.4-3.4
	c1.7-0.8,3.5-1.4,5.3-1.8c1.8-0.4,3.9-0.6,6.3-0.7c1.9-0.1,3.8-0.1,5.7,0.2c1.9,0.2,3.6,0.4,4.8,0.8c1.3,0.4,2.4,0.7,3.4,1.1
	c1.1,0.4,1.8,0.7,2.3,1l0.7,0.4l-5.5,12.6c-0.4-0.4-0.8-0.8-1.4-1.2c-0.6-0.5-1.7-1.2-3.4-2c-1.7-0.9-3.4-1.4-4.9-1.4
	c-0.9,0-1.9,0.1-2.7,0.4c-0.8,0.2-1.5,0.5-1.9,1c-0.5,0.5-0.7,1-0.8,1.6c0,0.6,0.4,1.3,1.2,2C536,335.9,537.3,336.6,539,337.4z"/>
</svg>
