<?xml version="1.0" standalone="no"?>
<!DOCTYPE svg PUBLIC "-//W3C//DTD SVG 20010904//EN"
 "http://www.w3.org/TR/2001/REC-SVG-20010904/DTD/svg10.dtd">
<svg version="1.0" xmlns="http://www.w3.org/2000/svg"
 width="800.000000pt" height="800.000000pt" viewBox="0 0 800.000000 800.000000"
 preserveAspectRatio="xMidYMid meet">
<metadata>
Created by potrace 1.14, written by Peter Selinger 2001-2017
</metadata>
<g transform="translate(0.000000,800.000000) scale(0.100000,-0.100000)"
fill="#000000" stroke="none">
<path d="M4158 7241 c-2 -9 -4 -250 -3 -536 l0 -520 835 0 835 0 0 535 0 535
-832 1 c-752 1 -832 -1 -835 -15z"/>
<path d="M4158 5705 c0 0 -2 -568 -3 -1262 -1 -894 2 -1260 9 -1256 11 7 31
25 171 155 44 41 94 87 110 102 33 30 205 190 265 246 21 19 82 76 135 125 54
50 113 104 131 120 17 17 58 54 90 84 33 30 91 84 130 120 66 62 229 213 373
346 138 128 206 191 231 216 l25 25 0 489 0 490 -833 0 c-457 0 -833 0 -834 0z"/>
<path d="M5765 3995 c-28 -27 -89 -84 -135 -125 -46 -41 -106 -96 -132 -121
-26 -26 -48 -45 -48 -43 0 1 -17 -14 -38 -34 -54 -52 -223 -206 -232 -212 -11
-7 -199 -181 -299 -277 -47 -45 -97 -91 -111 -103 -14 -12 -76 -70 -139 -128
-63 -59 -119 -111 -125 -117 -7 -5 -43 -39 -82 -75 -38 -36 -114 -105 -168
-155 -55 -49 -128 -117 -163 -151 -34 -33 -63 -59 -63 -58 0 1 -19 -16 -43
-39 -23 -23 -85 -81 -137 -128 -52 -48 -121 -111 -152 -140 -31 -30 -99 -92
-149 -139 -51 -47 -109 -101 -129 -120 -21 -19 -64 -60 -97 -90 -33 -30 -92
-84 -130 -120 -39 -36 -106 -96 -148 -135 -43 -38 -99 -90 -125 -115 -26 -25
-84 -79 -129 -120 -45 -41 -115 -106 -155 -145 -41 -38 -116 -108 -167 -155
-51 -47 -129 -119 -174 -161 -44 -42 -111 -105 -150 -140 -38 -35 -78 -71 -88
-80 -16 -14 64 -16 1005 -14 563 1 1041 5 1063 8 22 3 58 9 80 11 22 3 63 10
90 16 28 6 64 12 80 14 17 3 46 11 66 20 20 8 51 18 70 21 18 3 37 9 43 13 6
3 20 8 30 9 50 8 310 138 405 203 32 22 61 40 65 40 4 0 21 13 39 30 18 16 35
30 39 30 4 0 13 6 20 13 7 6 35 29 61 50 67 54 277 269 277 283 0 3 24 37 53
77 55 77 63 89 99 152 35 61 119 250 119 267 0 4 7 29 15 55 8 27 17 62 19 78
7 56 16 110 21 135 8 35 13 1943 5 1955 -3 6 -29 -12 -56 -40z"/>
<path d="M1573 2278 c2 -20 8 -41 12 -48 4 -6 8 -21 10 -33 5 -34 16 -97 22
-121 6 -28 20 -101 28 -151 3 -22 9 -49 12 -60 4 -11 8 -24 9 -30 7 -31 17
-83 19 -100 2 -11 8 -39 14 -63 7 -24 14 -60 17 -80 2 -20 7 -46 11 -57 4 -11
7 -24 8 -30 1 -13 16 -93 22 -120 3 -11 6 -29 9 -40 2 -11 11 -51 19 -90 9
-38 18 -83 21 -100 2 -16 10 -52 17 -78 l12 -49 30 28 c17 14 53 48 80 73 28
26 118 109 200 186 192 177 369 342 410 380 18 17 72 66 120 110 133 123 242
228 226 219 -41 -21 -490 -21 -591 1 -14 3 -38 7 -55 10 -36 5 -71 12 -93 19
-9 3 -28 7 -42 10 -14 3 -44 12 -67 20 -22 9 -53 17 -67 20 -14 3 -31 8 -38
13 -7 4 -18 8 -24 9 -5 1 -37 14 -70 30 -32 15 -61 28 -64 29 -19 4 -161 82
-189 103 l-33 26 5 -36z"/>
</g>
</svg>
